#!OML:ASF E:\Steps\Project 1\Capture day 1\Session 2\Subject.ASF
:FULLY-SPECIFIED
:DEGREES
164
root 16.715 19.1323 20.4137 -157.03 -9.75671 173.489
lowerback -20.3494 -1.53947 -3.70665
upperback 1.42138 -1.2096 -0.0121831
thorax 13.1754 -0.853646 1.71725
lowerneck -3.58026 4.33276 1.10867
upperneck 13.5942 5.39491 -0.361403
head 4.70407 2.51285 -0.0301588
rclavicle -2.78299e-015 1.03368e-014
rhumerus -36.1419 -16.5795 -74.2547
rradius 36.6402
rwrist -3.28291
rhand -8.06552 -51.5382
rfingers 7.12502
rthumb 17.8458 -80.7393
lclavicle -2.78299e-015 1.03368e-014
lhumerus -30.6325 -1.39818 82.6702
lradius 32.5073
lwrist -0.665237
lhand -19.9576 -12.4767
lfingers 7.12502
lthumb 6.38077 17.4072
rfemur -31.2641 5.29091 18.161
rtibia 36.8279
rfoot -34.8878 -12.3249
rtoes -19.6226
lfemur -51.1873 -4.72745 -19.5452
ltibia 58.9224
lfoot -10.6214 1.1527
ltoes -28.9661
165
root 16.7005 19.1212 20.384 -157.16 -9.52209 173.456
lowerback -20.3167 -1.49785 -3.61836
upperback 1.43834 -1.18105 0.0347185
thorax 13.1732 -0.835731 1.72915
lowerneck -3.6296 4.33373 1.14028
upperneck 13.5646 5.42097 -0.538601
head 4.70937 2.51873 -0.0871371
rclavicle -8.15017e-015 -7.95139e-016
rhumerus -35.9857 -16.6433 -74.1234
rradius 36.8696
rwrist -3.44207
rhand -8.2218 -54.5071
rfingers 7.12502
rthumb 17.6954 -83.722
lclavicle -8.15017e-015 -7.95139e-016
lhumerus -30.5499 -1.16478 82.5387
lradius 32.3626
lwrist -0.652022
lhand -20.038 -12.8673
lfingers 7.12502
lthumb 6.30311 17.0189
rfemur -31.3213 5.59675 18.0584
rtibia 37.4305
rfoot -35.2003 -12.5122
rtoes -20.3262
lfemur -51.4367 -4.31308 -19.1046
ltibia 58.5741
lfoot -10.3418 2.06353
ltoes -30.7163
166
root 16.6846 19.1096 20.3534 -157.285 -9.42929 173.21
lowerback -20.1775 -1.51772 -3.67486
upperback 1.36682 -1.19962 -0.000100243
thorax 13.0111 -0.844933 1.71897
lowerneck -3.55095 4.2943 1.23569
upperneck 13.669 5.35454 -0.577661
head 4.73139 2.48359 -0.118909
rclavicle -1.39149e-014 2.54444e-014
rhumerus -36.0678 -16.8348 -73.8497
rradius 36.8334
rwrist -3.15837
rhand -8.44182 -52.4725
rfingers 7.12502
rthumb 17.4837 -81.7063
lclavicle -1.39149e-014 2.54444e-014
lhumerus -30.7291 -1.28655 82.4117
lradius 32.3401
lwrist -0.521876
lhand -20.276 -13.0199
lfingers 7.12502
lthumb 6.07331 16.873
rfemur -31.2411 5.66613 17.7223
rtibia 37.9088
rfoot -35.603 -12.5251
rtoes -20.4376
lfemur -51.5808 -4.09983 -18.8109
ltibia 58.079
lfoot -10.0042 2.7657
ltoes -30.4653
167
root 16.6677 19.0979 20.3199 -157.422 -9.3811 172.919
lowerback -20.1165 -1.58192 -3.76166
upperback 1.34439 -1.26452 -0.0298906
thorax 12.9554 -0.879132 1.71584
lowerneck -3.36718 4.41149 1.26842
upperneck 13.7193 5.51572 -0.687068
head 4.72165 2.55396 -0.153139
rclavicle 1.78906e-015 1.11319e-014
rhumerus -36.1595 -16.918 -73.6132
rradius 37.0145
rwrist -2.85503
rhand -8.35254 -49.7869
rfingers 7.12502
rthumb 17.5696 -79.013
lclavicle 1.78906e-015 1.11319e-014
lhumerus -30.8782 -1.33712 82.2755
lradius 32.3792
lwrist -0.531313
lhand -20.4093 -12.7701
lfingers 7.12502
lthumb 5.94463 17.1265
rfemur -31.0331 5.5112 17.395
rtibia 38.2623
rfoot -35.8746 -12.6543
rtoes -20.9187
lfemur -51.632 -3.93033 -18.5256
ltibia 57.5072
lfoot -9.59776 3.29007
ltoes -29.8232
168
root 16.6503 19.0833 20.2861 -157.417 -9.30895 172.746
lowerback -20.2801 -1.63416 -3.71548
upperback 1.34057 -1.34153 -0.0139248
thorax 13.0497 -0.913767 1.68061
lowerneck -3.23282 4.57282 1.1875
upperneck 13.6696 5.76551 -0.882344
head 4.68982 2.66155 -0.19059
rclavicle -1.0138e-014 -1.59028e-015
rhumerus -36.2008 -16.8296 -73.4719
rradius 37.4191
rwrist -2.81979
rhand -7.20642 -50.015
rfingers 7.12502
rthumb 18.6723 -79.1388
lclavicle -1.0138e-014 -1.59028e-015
lhumerus -30.7793 -1.04418 82.0796
lradius 32.2361
lwrist -0.712876
lhand -20.1915 -12.77
lfingers 7.12502
lthumb 6.15489 17.1206
rfemur -30.9685 5.33205 17.2059
rtibia 38.4604
rfoot -35.8017 -12.9592
rtoes -22.1403
lfemur -51.9365 -3.73849 -18.0726
ltibia 57.0193
lfoot -9.15393 3.71645
ltoes -30.5118
